# xmcd
#
# Track frame offsets:
#	183
#	13133
#	28890
#	42563
#	55028
#	68735
#	82898
#	95335
#	106978
#	120258
#	132695
#	147825
#	162253
#	174648
#	189310
#	212130
#	223263
#	235445
#
# Disc length: 3327
#
# Revision: 1
# Processed by: cddbd v1.5.1PL0 Copyright (c) Steve Scherf et al.
# Submitted via: CDex 1.51
# Normalized: r0:TDELIM( - )
#
DISCID=050cfd12
DTITLE=Various Artitsts - Mojo Workin'
DYEAR=1996
DGENRE=Blues
TTITLE0=Muddy Waters - Got My Mojo Workin'
TTITLE1=B.B. King - Rock Me Baby (Live)
TTITLE2=Little Milton - Kansas City
TTITLE3=Howlin' Wolf - Spoonful
TTITLE4=John Lee Hooker - I'm In The Mood
TTITLE5=Buddy Guy - Broken Hearted Blues
TTITLE6=Elmore James - Dust My Broom
TTITLE7=Little Walter - My Babe
TTITLE8=Muddy Waters - Mannish Boy
TTITLE9=B.B. King - The Thrill Is Gone (Live)
TTITLE10=Otis Spann - I'm Leaving You
TTITLE11=Howlin Wolf - Little Red Rooster
TTITLE12=John Lee Hooker - Walkin' The Boogie
TTITLE13=Lowell Fulsom - Reconsider Baby
TTITLE14=Willie Dixon - Wang Dang Doodle
TTITLE15=Memphis Slim - Blues For My Baby
TTITLE16=Muddy Waters - Rollin' Stone
TTITLE17=Sonny Boy Williamson - Help Me
EXTD=YEAR: 1996
EXTT0=
EXTT1=
EXTT2=
EXTT3=
EXTT4=
EXTT5=
EXTT6=
EXTT7=
EXTT8=
EXTT9=
EXTT10=
EXTT11=
EXTT12=
EXTT13=
EXTT14=
EXTT15=
EXTT16=
EXTT17=
PLAYORDER=
